<svg width="47" height="46" viewBox="0 0 47 46" fill="none" xmlns="http://www.w3.org/2000/svg">
<path d="M33.5494 0H12.8518C5.823 0 0.104614 5.69483 0.104614 12.6943V33.3057C0.104614 40.3054 5.823 46 12.8518 46H33.5494C40.5787 46 46.2971 40.3052 46.2971 33.3057V12.6943C46.2974 5.69483 40.5787 0 33.5494 0ZM42.1989 33.3057C42.1989 38.055 38.3188 41.9187 33.5496 41.9187H12.8518C8.08287 41.9189 4.20303 38.055 4.20303 33.3057V12.6943C4.20303 7.94529 8.08287 4.08134 12.8518 4.08134H33.5494C38.3186 4.08134 42.1987 7.94529 42.1987 12.6943V33.3057H42.1989Z" fill="black"/>
<path d="M23.2009 11.1479C16.6377 11.1479 11.2983 16.4651 11.2983 23.001C11.2983 29.5366 16.6377 34.8535 23.2009 34.8535C29.7641 34.8535 35.1035 29.5366 35.1035 23.001C35.1035 16.4651 29.7641 11.1479 23.2009 11.1479ZM23.2009 30.7719C18.8978 30.7719 15.3967 27.2858 15.3967 23.0007C15.3967 18.7153 18.8976 15.229 23.2009 15.229C27.5043 15.229 31.0051 18.7153 31.0051 23.0007C31.0051 27.2858 27.504 30.7719 23.2009 30.7719Z" fill="black"/>
<path d="M35.6026 7.68677C34.813 7.68677 34.0373 8.00511 33.4796 8.5629C32.9192 9.11796 32.5971 9.89069 32.5971 10.6798C32.5971 11.4664 32.9195 12.2388 33.4796 12.7966C34.037 13.3517 34.813 13.6727 35.6026 13.6727C36.395 13.6727 37.1682 13.3517 37.7283 12.7966C38.2884 12.2388 38.6081 11.4661 38.6081 10.6798C38.6081 9.89069 38.2884 9.11796 37.7283 8.5629C37.1709 8.00511 36.395 7.68677 35.6026 7.68677Z" fill="black"/>
</svg>
