<svg width="360" height="120" viewBox="0 0 360 120" fill="none" xmlns="http://www.w3.org/2000/svg">
<path d="M112.667 35.5C113.777 35.5 114.799 35.7109 115.733 36.1326C116.682 36.5398 117.543 37.1433 118.317 37.9431L119.28 38.9029C120.769 40.3862 121.901 42.582 122.674 45.4905L125.039 53.1905C125.243 52.5652 125.44 51.9472 125.63 51.3364C125.82 50.7256 126.01 50.093 126.2 49.4387L127.776 44.378C128.156 42.9674 128.63 41.7168 129.199 40.6261C129.783 39.5209 130.455 38.5902 131.214 37.834C131.973 37.0778 132.812 36.5034 133.732 36.1108C134.666 35.7036 135.674 35.5 136.754 35.5C141.002 35.5 144.031 36.707 145.841 39.121L146.169 39.4264C148.023 41.3023 148.95 44.0653 148.95 47.7154V67.5H139.885L138.856 66.4748H138.725V45.7522C138.126 46.014 137.52 47.41 136.907 49.9404L132.528 63.0283C132.134 64.4389 131.462 65.5368 130.513 66.3221C129.579 67.1074 128.375 67.5 126.9 67.5H124.711C123.879 67.5 123.127 67.3691 122.455 67.1074C121.784 66.8456 121.2 66.4675 120.703 65.9731L119.915 65.2096C118.981 64.4243 118.317 63.3409 117.923 61.9594C117.791 61.5813 117.609 61.0433 117.375 60.3453C117.142 59.6472 116.879 58.8765 116.587 58.0331C116.31 57.1751 116.018 56.288 115.711 55.3718C115.404 54.4411 115.105 53.5541 114.813 52.7106C114.536 51.8672 114.28 51.111 114.047 50.4421C113.828 49.7586 113.66 49.2351 113.543 48.8715C113.193 47.4755 112.85 46.4139 112.514 45.6868C111.989 45.7595 111.726 46.0721 111.726 46.6247V67.5H102.661L101.631 66.4748H101.5V46.6247C101.5 39.2082 105.222 35.5 112.667 35.5ZM112.667 35.7181C105.368 35.7181 101.719 39.3537 101.719 46.6247V66.2566H110.478V45.5341C110.478 44.807 110.843 44.4434 111.573 44.4434C112.302 44.4434 113.032 45.8976 113.762 48.8061L118.142 61.894C118.871 64.8024 120.696 66.2566 123.616 66.2566H125.805C128.725 66.2566 130.55 64.8024 131.28 61.894L135.659 48.8061C136.389 45.8976 137.119 44.4434 137.849 44.4434C138.579 44.4434 138.944 44.807 138.944 45.5341V66.2566H147.702V46.6247C147.702 39.3537 144.053 35.7181 136.754 35.7181C132.374 35.7181 129.455 38.6266 127.995 44.4434L124.711 55.0446L121.426 44.4434C119.966 38.6266 117.047 35.7181 112.667 35.7181Z" fill="black"/>
<path d="M184.16 44.0508C183.985 44.2253 183.788 44.4434 183.569 44.7052C183.35 44.9669 183.117 45.2723 182.868 45.6213L177.132 52.9506H184.16V44.0508ZM152.366 66.4748H152.169L175.467 38.8374C177.701 36.6125 180.672 35.5 184.379 35.5C187.824 35.5 190.284 36.4961 191.759 38.4884L192.153 38.881C193.642 40.3643 194.386 42.582 194.386 45.5341V67.5H185.321L184.292 66.4748H184.16V60.956H170.365C169.446 62.0467 168.504 63.1374 167.541 64.228C166.592 65.3187 165.658 66.4093 164.738 67.5H153.395L152.366 66.4748ZM193.138 44.4434C193.138 38.6266 190.218 35.7181 184.379 35.7181C180.73 35.7181 177.81 36.8088 175.621 38.9901L152.629 66.2566H163.577L169.205 59.7127H184.379V66.2566H193.138V44.4434ZM184.379 53.1687H174.832L181.642 44.4434C182.737 42.9892 183.467 42.2621 183.832 42.2621C184.197 42.2621 184.379 42.6257 184.379 43.3528V53.1687Z" fill="black"/>
<path d="M199.707 35.5H208.904V35.6309L209.933 36.6561V67.5H200.868L199.838 66.4748H199.707V35.5ZM199.926 66.2566H208.685V35.7181H199.926V66.2566Z" fill="black"/>
<path d="M240.72 64.5116C239.859 63.8136 239.107 62.9847 238.464 62.0249L232.99 53.8449C232.144 52.5798 231.26 51.271 230.341 49.9185C229.421 48.5661 228.545 47.2573 227.713 45.9922C227.523 45.9049 227.341 45.8322 227.166 45.774C227.005 45.7159 226.845 45.6868 226.684 45.6868C225.998 45.6868 225.655 45.9994 225.655 46.6247V67.5H216.59L215.56 66.4748H215.429V45.5341C215.429 38.8447 219.151 35.5 226.596 35.5C228.042 35.5 229.363 35.8127 230.56 36.438C231.771 37.0633 232.844 37.9504 233.779 39.0992L234.063 39.3609C234.559 39.8554 235.034 40.4298 235.486 41.0842C237.209 43.7018 238.961 46.3266 240.742 48.9588C242.523 51.5909 244.282 54.2157 246.019 56.8333C246.501 57.1533 246.931 57.3132 247.311 57.3132C247.953 57.3132 248.274 57.0224 248.274 56.4407V35.5H257.471V35.6309L258.5 36.6561V57.5314C258.5 64.1771 254.799 67.5 247.398 67.5C246.158 67.5 245.004 67.2673 243.939 66.802C242.873 66.3366 241.902 65.6677 241.026 64.7952L240.72 64.5116ZM224.407 45.5341C224.407 44.807 224.801 44.4434 225.589 44.4434C226.275 44.4434 226.976 44.807 227.691 45.5341L238.64 61.894C240.537 64.8024 243.092 66.2566 246.303 66.2566C253.602 66.2566 257.252 62.9847 257.252 56.4407V35.7181H248.493V56.4407C248.493 57.1678 248.099 57.5314 247.311 57.5314C246.639 57.5314 245.939 57.1678 245.209 56.4407L234.26 40.0808C232.363 37.1723 229.808 35.7181 226.596 35.7181C219.297 35.7181 215.648 38.9901 215.648 45.5341V66.2566H224.407V45.5341Z" fill="black"/>
<path d="M119.085 80.2471V80.3166L119.639 80.8613V84.5H107.776C105.176 84.5 103.287 83.9206 102.109 82.7618L101.92 82.5763C100.64 81.5952 100 80.0849 100 78.0453V73.41C100 69.47 102.396 67.5 107.187 67.5H119.085V67.5695L119.639 68.1142L119.651 71.7529H107.776C106.26 71.7529 105.502 72.4984 105.502 73.9894V78.6247C105.502 79.1424 105.588 79.5673 105.761 79.8995C106.114 80.1312 106.59 80.2471 107.187 80.2471H119.085ZM107.187 80.363C105.616 80.363 104.83 79.5904 104.83 78.0453V73.41C104.83 71.8649 105.616 71.0924 107.187 71.0924H118.979L118.968 67.6159H107.187C102.474 67.6159 100.118 69.5473 100.118 73.41V78.0453C100.118 81.9081 102.474 83.8395 107.187 83.8395H118.968V80.363H107.187Z" fill="black"/>
<path d="M127.403 67.5695L127.957 68.1142V78.6247C127.957 79.1424 128.043 79.5673 128.216 79.8995C128.569 80.1312 129.044 80.2471 129.641 80.2471H141.54V80.3166L142.094 80.8613V84.5H130.23C127.631 84.5 125.742 83.9206 124.564 82.7618L124.375 82.5763C123.095 81.5952 122.455 80.0849 122.455 78.0453V67.5H127.403V67.5695ZM127.285 67.6159H122.573V78.0453C122.573 81.9081 124.929 83.8395 129.641 83.8395H141.423V80.363H129.641C128.071 80.363 127.285 79.5904 127.285 78.0453V67.6159Z" fill="black"/>
<path d="M148.02 78.6247C148.02 79.1424 148.106 79.5673 148.279 79.8995C148.633 80.1312 149.108 80.2471 149.705 80.2471H156.773C158.266 80.2471 159.012 79.5132 159.012 78.0453V73.41C159.012 72.8461 158.898 72.3864 158.67 72.031C158.317 71.8456 157.881 71.7529 157.362 71.7529H150.294C148.778 71.7529 148.02 72.4984 148.02 73.9894V78.6247ZM156.773 67.5C159.679 67.5 161.706 68.2262 162.853 69.6786L163.029 69.8524C164.019 70.8258 164.514 72.2048 164.514 73.9894V79.7836C164.514 82.9279 162.13 84.5 157.362 84.5H150.294C147.694 84.5 145.805 83.9206 144.627 82.7618L144.439 82.5763C143.158 81.5952 142.518 80.0849 142.518 78.0453V73.41C142.518 69.47 144.914 67.5 149.705 67.5H156.773ZM156.773 71.0924C158.344 71.0924 159.13 71.8649 159.13 73.41V78.0453C159.13 79.5904 158.344 80.363 156.773 80.363H149.705C148.134 80.363 147.348 79.5904 147.348 78.0453V73.41C147.348 71.8649 148.134 71.0924 149.705 71.0924H156.773ZM149.705 67.6159C144.992 67.6159 142.636 69.5473 142.636 73.41V78.0453C142.636 81.9081 144.992 83.8395 149.705 83.8395H156.773C161.486 83.8395 163.842 82.2944 163.842 79.2042V73.41C163.842 69.5473 161.486 67.6159 156.773 67.6159H149.705Z" fill="black"/>
<path d="M166.646 71.2082H166.575V67.5H188.017V67.5695L188.571 68.1142V71.7529H180.324V84.5H175.447L174.893 83.9554H174.822V71.7529H167.2L166.646 71.2082ZM187.899 71.0924V67.6159H166.693V71.0924H174.94V83.8395H179.652V71.0924H187.899Z" fill="black"/>
<path d="M190.762 67.5H195.71V67.5695L196.264 68.1142V73.8736H207.256V67.5H212.204V67.5695L212.758 68.1142V84.5H207.88L207.326 83.9554H207.256V78.1264H196.264V84.5H191.386L190.833 83.9554H190.762V67.5ZM190.88 83.8395H195.592V77.4659H207.374V83.8395H212.086V67.6159H207.374V73.9894H195.592V67.6159H190.88V83.8395Z" fill="black"/>
<path d="M223.266 71.7529C221.79 71.7529 221.032 72.4598 220.993 73.8736H234.576V73.9431L235.13 74.4877V78.1264H220.993V78.6247C220.993 79.1424 221.079 79.5673 221.252 79.8995C221.605 80.1312 222.08 80.2471 222.677 80.2471H234.576V80.3166L235.13 80.8613V84.5H223.266C220.667 84.5 218.778 83.9206 217.6 82.7618L217.411 82.5763C216.131 81.5952 215.491 80.0849 215.491 78.0453V73.41C215.491 69.47 217.886 67.5 222.677 67.5H234.576V67.5695L235.13 68.1142L235.142 71.7529H223.266ZM234.458 77.4659V73.9894H220.321V73.41C220.321 71.8649 221.106 71.0924 222.677 71.0924H234.47L234.458 67.6159H222.677C217.965 67.6159 215.609 69.5473 215.609 73.41V78.0453C215.609 81.9081 217.965 83.8395 222.677 83.8395H234.458V80.363H222.677C221.106 80.363 220.321 79.5904 220.321 78.0453V77.4659H234.458Z" fill="black"/>
<path d="M238.087 83.9554H238.016L238.005 80.2471H252.849C253.948 80.2471 254.498 79.8995 254.498 79.2042V78.6247C254.498 78.5011 254.479 78.3814 254.439 78.2655C254.18 78.1728 253.846 78.1264 253.438 78.1264H245.191C242.654 78.1264 240.856 77.605 239.795 76.562L239.548 76.3303C238.519 75.55 238.005 74.3834 238.005 72.8306V72.2512C238.005 69.0837 240.204 67.5 244.602 67.5H259.446V67.5695L260 68.1142V71.7529H245.191C244.068 71.7529 243.506 72.1121 243.506 72.8306V73.41C243.506 73.4641 243.506 73.5182 243.506 73.5723C243.506 73.6186 243.514 73.6611 243.53 73.6997C243.797 73.8156 244.154 73.8736 244.602 73.8736H252.849C255.653 73.8736 257.561 74.5186 258.574 75.8088L258.834 76.0521C259.611 76.817 260 77.8676 260 79.2042V79.7836C260 82.9279 257.813 84.5 253.438 84.5H238.641L238.087 83.9554ZM252.849 77.4659C254.027 77.4659 254.616 77.8522 254.616 78.6247V79.2042C254.616 79.9767 254.027 80.363 252.849 80.363H238.122L238.134 83.8395H252.849C257.169 83.8395 259.328 82.2944 259.328 79.2042V78.6247C259.328 75.5345 257.169 73.9894 252.849 73.9894H244.602C243.424 73.9894 242.835 73.6032 242.835 72.8306V72.2512C242.835 71.4786 243.424 71.0924 244.602 71.0924H259.328V67.6159H244.602C240.282 67.6159 238.122 69.161 238.122 72.2512V72.8306C238.122 75.9208 240.282 77.4659 244.602 77.4659H252.849Z" fill="black"/>
</svg>
