<svg width="669" height="50" viewBox="0 0 669 50" fill="none" xmlns="http://www.w3.org/2000/svg">
<mask id="path-1-outside-1_661_42" maskUnits="userSpaceOnUse" x="0" y="3" width="669" height="47" fill="black">
<rect fill="white" y="3" width="669" height="47"/>
<path d="M14.2489 49C10.2897 49 5.77365 48.069 2 45.9586L5.09316 39.5034C7.93886 41.1793 11.2176 42.4828 14.6819 42.4828C17.0327 42.4828 18.2081 41.8621 18.2081 40.4345C18.2081 39.3172 17.4039 38.7586 15.7336 37.9517L10.599 35.7172C6.08297 33.731 4.16521 30.8759 4.16521 27.1517C4.16521 21.5655 8.06258 18.4621 15.2387 18.4621C18.5175 18.4621 22.0436 19.2069 25.3843 20.4483L22.8479 26.8414C20.2496 25.7241 17.4039 24.8552 14.8057 24.8552C12.5786 24.8552 11.8981 25.5379 11.8981 26.5931C11.8981 27.7103 12.6405 28.331 14.6201 29.2L19.7547 31.4345C23.7758 33.1103 26.0648 35.531 26.0648 39.8138C26.0648 46.1448 21.3632 49 14.2489 49Z"/>
<path d="M43.5082 18.4621C52.1691 18.4621 57.3656 23.9862 57.3656 33.7931V35.2828H36.0228C36.4558 39.6897 39.6727 42.2345 44.065 42.2345C48.1479 42.2345 50.9937 39.9379 52.6021 38.3241L56.4376 43.8483C53.9012 46.2069 50.0657 49 44.065 49C34.7237 49 28.6611 42.9172 28.6611 33.7931C28.6611 24.669 34.5381 18.4621 43.5082 18.4621ZM43.137 24.6069C39.4871 24.6069 36.827 26.4069 36.2084 30.3793H49.6945C49.4471 26.7172 46.8488 24.6069 43.137 24.6069Z"/>
<path d="M69.9035 4.62069V48.069H62.2943V4.62069H69.9035Z"/>
<path d="M84.5235 4.62069V48.069H76.9143V4.62069H84.5235Z"/>
<path d="M116.858 4.99311V13.3724H108.197V4.99311H116.858ZM108.692 48.069V19.3931H116.301V48.069H108.692Z"/>
<path d="M139.396 25.7862H133.519V37.8276C133.519 40.1241 134.323 41.0552 136.55 41.0552H137.849V48.131H134.509C129.127 48.131 125.91 45.4 125.91 39.6276V25.7862H120.652V19.3931H125.91V7.91035H133.519V19.3931H139.396V25.7862Z"/>
<path d="M176.349 11.0759C172.884 11.0759 170.967 12.3793 170.967 16.5379V19.3931H176.844V25.7862H170.967V48.069H163.419V25.7862H158.656V19.3931H163.419V16.5379C163.419 8.28276 167.626 4 175.668 4H177.215V11.0759H176.349Z"/>
<path d="M192.099 49C184.613 49 178.365 43.5379 178.365 33.731C178.365 23.9241 184.613 18.4621 192.099 18.4621C196.738 18.4621 199.831 20.4483 201.625 23.4276H201.749V19.3931H209.297V48.069H201.749V44.0345H201.625C199.831 47.0138 196.738 49 192.099 49ZM194.016 41.8C198.594 41.8 201.749 38.5724 201.749 33.731C201.749 28.8897 198.594 25.6621 194.016 25.6621C189.438 25.6621 186.283 28.8897 186.283 33.731C186.283 38.5724 189.438 41.8 194.016 41.8Z"/>
<path d="M225.574 49C221.615 49 217.099 48.069 213.325 45.9586L216.419 39.5034C219.264 41.1793 222.543 42.4828 226.007 42.4828C228.358 42.4828 229.533 41.8621 229.533 40.4345C229.533 39.3172 228.729 38.7586 227.059 37.9517L221.924 35.7172C217.408 33.731 215.491 30.8759 215.491 27.1517C215.491 21.5655 219.388 18.4621 226.564 18.4621C229.843 18.4621 233.369 19.2069 236.71 20.4483L234.173 26.8414C231.575 25.7241 228.729 24.8552 226.131 24.8552C223.904 24.8552 223.223 25.5379 223.223 26.5931C223.223 27.7103 223.966 28.331 225.945 29.2L231.08 31.4345C235.101 33.1103 237.39 35.531 237.39 39.8138C237.39 46.1448 232.688 49 225.574 49Z"/>
<path d="M257.927 25.7862H252.05V37.8276C252.05 40.1241 252.854 41.0552 255.081 41.0552H256.38V48.131H253.04C247.657 48.131 244.441 45.4 244.441 39.6276V25.7862H239.182V19.3931H244.441V7.91035H252.05V19.3931H257.927V25.7862Z"/>
<path d="M297.044 28.0828V35.1586H279.104V28.0828H297.044Z"/>
<path d="M320.437 48.069V19.3931H327.922V23.7379H328.046C329.655 20.2 332.871 18.4621 336.769 18.4621C340.976 18.4621 344.007 20.3862 345.553 24.1724H345.677C347.595 20.3241 351.121 18.4621 355.018 18.4621C360.586 18.4621 364.978 22.1241 364.978 29.8828V48.069H357.369V31.4965C357.369 27.7103 355.637 25.5379 352.173 25.5379C348.894 25.5379 346.419 27.6483 346.419 33.4828V48.069H338.934V31.4965C338.934 27.7103 337.264 25.5379 333.799 25.5379C330.521 25.5379 327.984 27.6483 327.984 33.5448V48.069H320.437Z"/>
<path d="M383.306 49C375.821 49 369.573 43.5379 369.573 33.731C369.573 23.9241 375.821 18.4621 383.306 18.4621C387.946 18.4621 391.039 20.4483 392.833 23.4276H392.957V19.3931H400.504V48.069H392.957V44.0345H392.833C391.039 47.0138 387.946 49 383.306 49ZM385.224 41.8C389.802 41.8 392.957 38.5724 392.957 33.731C392.957 28.8897 389.802 25.6621 385.224 25.6621C380.646 25.6621 377.491 28.8897 377.491 33.731C377.491 38.5724 380.646 41.8 385.224 41.8Z"/>
<path d="M435.403 48.069H425.505L414.802 34.4138V48.069H407.193V4.62069H414.802V31.1862L424.206 19.3931H433.856L422.164 32.4276L435.403 48.069Z"/>
<path d="M449.424 18.4621C458.085 18.4621 463.282 23.9862 463.282 33.7931V35.2828H441.939C442.372 39.6897 445.589 42.2345 449.981 42.2345C454.064 42.2345 456.91 39.9379 458.518 38.3241L462.354 43.8483C459.817 46.2069 455.982 49 449.981 49C440.64 49 434.577 42.9172 434.577 33.7931C434.577 24.669 440.454 18.4621 449.424 18.4621ZM449.053 24.6069C445.403 24.6069 442.743 26.4069 442.125 30.3793H455.611C455.363 26.7172 452.765 24.6069 449.053 24.6069Z"/>
<path d="M493.534 4.99311V13.3724H484.873V4.99311H493.534ZM485.368 48.069V19.3931H492.977V48.069H485.368Z"/>
<path d="M516.072 25.7862H510.195V37.8276C510.195 40.1241 511 41.0552 513.227 41.0552H514.526V48.131H511.185C505.803 48.131 502.586 45.4 502.586 39.6276V25.7862H497.328V19.3931H502.586V7.91035H510.195V19.3931H516.072V25.7862Z"/>
<path d="M571.744 19.3931H579.662L569.702 48.069H562.959L556.402 29.3241L549.844 48.069H543.101L533.141 19.3931H541.06L546.565 38.2621L552.814 19.3931H559.99L566.238 38.2621L571.744 19.3931Z"/>
<path d="M595.587 18.4621C604.681 18.4621 611.424 24.731 611.424 33.731C611.424 42.731 604.681 49 595.587 49C586.493 49 579.75 42.731 579.75 33.731C579.75 24.731 586.493 18.4621 595.587 18.4621ZM595.587 25.6621C590.947 25.6621 587.545 28.8276 587.545 33.731C587.545 38.6345 590.947 41.8 595.587 41.8C600.227 41.8 603.568 38.6345 603.568 33.731C603.568 28.8276 600.227 25.6621 595.587 25.6621Z"/>
<path d="M633.724 18.5241V26.7172H632.858C626.796 26.7172 623.888 29.3241 623.888 36.3379V48.069H616.341V19.3931H623.826V25.4759H623.95C625.435 21.0069 628.713 18.5241 633.415 18.5241H633.724Z"/>
<path d="M666 48.069H656.102L645.4 34.4138V48.069H637.79V4.62069H645.4V31.1862L654.803 19.3931H664.453L652.761 32.4276L666 48.069Z"/>
</mask>
<path d="M14.2489 49C10.2897 49 5.77365 48.069 2 45.9586L5.09316 39.5034C7.93886 41.1793 11.2176 42.4828 14.6819 42.4828C17.0327 42.4828 18.2081 41.8621 18.2081 40.4345C18.2081 39.3172 17.4039 38.7586 15.7336 37.9517L10.599 35.7172C6.08297 33.731 4.16521 30.8759 4.16521 27.1517C4.16521 21.5655 8.06258 18.4621 15.2387 18.4621C18.5175 18.4621 22.0436 19.2069 25.3843 20.4483L22.8479 26.8414C20.2496 25.7241 17.4039 24.8552 14.8057 24.8552C12.5786 24.8552 11.8981 25.5379 11.8981 26.5931C11.8981 27.7103 12.6405 28.331 14.6201 29.2L19.7547 31.4345C23.7758 33.1103 26.0648 35.531 26.0648 39.8138C26.0648 46.1448 21.3632 49 14.2489 49Z" fill="white"/>
<path d="M43.5082 18.4621C52.1691 18.4621 57.3656 23.9862 57.3656 33.7931V35.2828H36.0228C36.4558 39.6897 39.6727 42.2345 44.065 42.2345C48.1479 42.2345 50.9937 39.9379 52.6021 38.3241L56.4376 43.8483C53.9012 46.2069 50.0657 49 44.065 49C34.7237 49 28.6611 42.9172 28.6611 33.7931C28.6611 24.669 34.5381 18.4621 43.5082 18.4621ZM43.137 24.6069C39.4871 24.6069 36.827 26.4069 36.2084 30.3793H49.6945C49.4471 26.7172 46.8488 24.6069 43.137 24.6069Z" fill="white"/>
<path d="M69.9035 4.62069V48.069H62.2943V4.62069H69.9035Z" fill="white"/>
<path d="M84.5235 4.62069V48.069H76.9143V4.62069H84.5235Z" fill="white"/>
<path d="M116.858 4.99311V13.3724H108.197V4.99311H116.858ZM108.692 48.069V19.3931H116.301V48.069H108.692Z" fill="white"/>
<path d="M139.396 25.7862H133.519V37.8276C133.519 40.1241 134.323 41.0552 136.55 41.0552H137.849V48.131H134.509C129.127 48.131 125.91 45.4 125.91 39.6276V25.7862H120.652V19.3931H125.91V7.91035H133.519V19.3931H139.396V25.7862Z" fill="white"/>
<path d="M176.349 11.0759C172.884 11.0759 170.967 12.3793 170.967 16.5379V19.3931H176.844V25.7862H170.967V48.069H163.419V25.7862H158.656V19.3931H163.419V16.5379C163.419 8.28276 167.626 4 175.668 4H177.215V11.0759H176.349Z" fill="white"/>
<path d="M192.099 49C184.613 49 178.365 43.5379 178.365 33.731C178.365 23.9241 184.613 18.4621 192.099 18.4621C196.738 18.4621 199.831 20.4483 201.625 23.4276H201.749V19.3931H209.297V48.069H201.749V44.0345H201.625C199.831 47.0138 196.738 49 192.099 49ZM194.016 41.8C198.594 41.8 201.749 38.5724 201.749 33.731C201.749 28.8897 198.594 25.6621 194.016 25.6621C189.438 25.6621 186.283 28.8897 186.283 33.731C186.283 38.5724 189.438 41.8 194.016 41.8Z" fill="white"/>
<path d="M225.574 49C221.615 49 217.099 48.069 213.325 45.9586L216.419 39.5034C219.264 41.1793 222.543 42.4828 226.007 42.4828C228.358 42.4828 229.533 41.8621 229.533 40.4345C229.533 39.3172 228.729 38.7586 227.059 37.9517L221.924 35.7172C217.408 33.731 215.491 30.8759 215.491 27.1517C215.491 21.5655 219.388 18.4621 226.564 18.4621C229.843 18.4621 233.369 19.2069 236.71 20.4483L234.173 26.8414C231.575 25.7241 228.729 24.8552 226.131 24.8552C223.904 24.8552 223.223 25.5379 223.223 26.5931C223.223 27.7103 223.966 28.331 225.945 29.2L231.08 31.4345C235.101 33.1103 237.39 35.531 237.39 39.8138C237.39 46.1448 232.688 49 225.574 49Z" fill="white"/>
<path d="M257.927 25.7862H252.05V37.8276C252.05 40.1241 252.854 41.0552 255.081 41.0552H256.38V48.131H253.04C247.657 48.131 244.441 45.4 244.441 39.6276V25.7862H239.182V19.3931H244.441V7.91035H252.05V19.3931H257.927V25.7862Z" fill="white"/>
<path d="M297.044 28.0828V35.1586H279.104V28.0828H297.044Z" fill="white"/>
<path d="M320.437 48.069V19.3931H327.922V23.7379H328.046C329.655 20.2 332.871 18.4621 336.769 18.4621C340.976 18.4621 344.007 20.3862 345.553 24.1724H345.677C347.595 20.3241 351.121 18.4621 355.018 18.4621C360.586 18.4621 364.978 22.1241 364.978 29.8828V48.069H357.369V31.4965C357.369 27.7103 355.637 25.5379 352.173 25.5379C348.894 25.5379 346.419 27.6483 346.419 33.4828V48.069H338.934V31.4965C338.934 27.7103 337.264 25.5379 333.799 25.5379C330.521 25.5379 327.984 27.6483 327.984 33.5448V48.069H320.437Z" fill="white"/>
<path d="M383.306 49C375.821 49 369.573 43.5379 369.573 33.731C369.573 23.9241 375.821 18.4621 383.306 18.4621C387.946 18.4621 391.039 20.4483 392.833 23.4276H392.957V19.3931H400.504V48.069H392.957V44.0345H392.833C391.039 47.0138 387.946 49 383.306 49ZM385.224 41.8C389.802 41.8 392.957 38.5724 392.957 33.731C392.957 28.8897 389.802 25.6621 385.224 25.6621C380.646 25.6621 377.491 28.8897 377.491 33.731C377.491 38.5724 380.646 41.8 385.224 41.8Z" fill="white"/>
<path d="M435.403 48.069H425.505L414.802 34.4138V48.069H407.193V4.62069H414.802V31.1862L424.206 19.3931H433.856L422.164 32.4276L435.403 48.069Z" fill="white"/>
<path d="M449.424 18.4621C458.085 18.4621 463.282 23.9862 463.282 33.7931V35.2828H441.939C442.372 39.6897 445.589 42.2345 449.981 42.2345C454.064 42.2345 456.91 39.9379 458.518 38.3241L462.354 43.8483C459.817 46.2069 455.982 49 449.981 49C440.64 49 434.577 42.9172 434.577 33.7931C434.577 24.669 440.454 18.4621 449.424 18.4621ZM449.053 24.6069C445.403 24.6069 442.743 26.4069 442.125 30.3793H455.611C455.363 26.7172 452.765 24.6069 449.053 24.6069Z" fill="white"/>
<path d="M493.534 4.99311V13.3724H484.873V4.99311H493.534ZM485.368 48.069V19.3931H492.977V48.069H485.368Z" fill="white"/>
<path d="M516.072 25.7862H510.195V37.8276C510.195 40.1241 511 41.0552 513.227 41.0552H514.526V48.131H511.185C505.803 48.131 502.586 45.4 502.586 39.6276V25.7862H497.328V19.3931H502.586V7.91035H510.195V19.3931H516.072V25.7862Z" fill="white"/>
<path d="M571.744 19.3931H579.662L569.702 48.069H562.959L556.402 29.3241L549.844 48.069H543.101L533.141 19.3931H541.06L546.565 38.2621L552.814 19.3931H559.99L566.238 38.2621L571.744 19.3931Z" fill="white"/>
<path d="M595.587 18.4621C604.681 18.4621 611.424 24.731 611.424 33.731C611.424 42.731 604.681 49 595.587 49C586.493 49 579.75 42.731 579.75 33.731C579.75 24.731 586.493 18.4621 595.587 18.4621ZM595.587 25.6621C590.947 25.6621 587.545 28.8276 587.545 33.731C587.545 38.6345 590.947 41.8 595.587 41.8C600.227 41.8 603.568 38.6345 603.568 33.731C603.568 28.8276 600.227 25.6621 595.587 25.6621Z" fill="white"/>
<path d="M633.724 18.5241V26.7172H632.858C626.796 26.7172 623.888 29.3241 623.888 36.3379V48.069H616.341V19.3931H623.826V25.4759H623.95C625.435 21.0069 628.713 18.5241 633.415 18.5241H633.724Z" fill="white"/>
<path d="M666 48.069H656.102L645.4 34.4138V48.069H637.79V4.62069H645.4V31.1862L654.803 19.3931H664.453L652.761 32.4276L666 48.069Z" fill="white"/>
<path d="M14.2489 49C10.2897 49 5.77365 48.069 2 45.9586L5.09316 39.5034C7.93886 41.1793 11.2176 42.4828 14.6819 42.4828C17.0327 42.4828 18.2081 41.8621 18.2081 40.4345C18.2081 39.3172 17.4039 38.7586 15.7336 37.9517L10.599 35.7172C6.08297 33.731 4.16521 30.8759 4.16521 27.1517C4.16521 21.5655 8.06258 18.4621 15.2387 18.4621C18.5175 18.4621 22.0436 19.2069 25.3843 20.4483L22.8479 26.8414C20.2496 25.7241 17.4039 24.8552 14.8057 24.8552C12.5786 24.8552 11.8981 25.5379 11.8981 26.5931C11.8981 27.7103 12.6405 28.331 14.6201 29.2L19.7547 31.4345C23.7758 33.1103 26.0648 35.531 26.0648 39.8138C26.0648 46.1448 21.3632 49 14.2489 49Z" stroke="black" stroke-width="2" mask="url(#path-1-outside-1_661_42)"/>
<path d="M43.5082 18.4621C52.1691 18.4621 57.3656 23.9862 57.3656 33.7931V35.2828H36.0228C36.4558 39.6897 39.6727 42.2345 44.065 42.2345C48.1479 42.2345 50.9937 39.9379 52.6021 38.3241L56.4376 43.8483C53.9012 46.2069 50.0657 49 44.065 49C34.7237 49 28.6611 42.9172 28.6611 33.7931C28.6611 24.669 34.5381 18.4621 43.5082 18.4621ZM43.137 24.6069C39.4871 24.6069 36.827 26.4069 36.2084 30.3793H49.6945C49.4471 26.7172 46.8488 24.6069 43.137 24.6069Z" stroke="black" stroke-width="2" mask="url(#path-1-outside-1_661_42)"/>
<path d="M69.9035 4.62069V48.069H62.2943V4.62069H69.9035Z" stroke="black" stroke-width="2" mask="url(#path-1-outside-1_661_42)"/>
<path d="M84.5235 4.62069V48.069H76.9143V4.62069H84.5235Z" stroke="black" stroke-width="2" mask="url(#path-1-outside-1_661_42)"/>
<path d="M116.858 4.99311V13.3724H108.197V4.99311H116.858ZM108.692 48.069V19.3931H116.301V48.069H108.692Z" stroke="black" stroke-width="2" mask="url(#path-1-outside-1_661_42)"/>
<path d="M139.396 25.7862H133.519V37.8276C133.519 40.1241 134.323 41.0552 136.55 41.0552H137.849V48.131H134.509C129.127 48.131 125.91 45.4 125.91 39.6276V25.7862H120.652V19.3931H125.91V7.91035H133.519V19.3931H139.396V25.7862Z" stroke="black" stroke-width="2" mask="url(#path-1-outside-1_661_42)"/>
<path d="M176.349 11.0759C172.884 11.0759 170.967 12.3793 170.967 16.5379V19.3931H176.844V25.7862H170.967V48.069H163.419V25.7862H158.656V19.3931H163.419V16.5379C163.419 8.28276 167.626 4 175.668 4H177.215V11.0759H176.349Z" stroke="black" stroke-width="2" mask="url(#path-1-outside-1_661_42)"/>
<path d="M192.099 49C184.613 49 178.365 43.5379 178.365 33.731C178.365 23.9241 184.613 18.4621 192.099 18.4621C196.738 18.4621 199.831 20.4483 201.625 23.4276H201.749V19.3931H209.297V48.069H201.749V44.0345H201.625C199.831 47.0138 196.738 49 192.099 49ZM194.016 41.8C198.594 41.8 201.749 38.5724 201.749 33.731C201.749 28.8897 198.594 25.6621 194.016 25.6621C189.438 25.6621 186.283 28.8897 186.283 33.731C186.283 38.5724 189.438 41.8 194.016 41.8Z" stroke="black" stroke-width="2" mask="url(#path-1-outside-1_661_42)"/>
<path d="M225.574 49C221.615 49 217.099 48.069 213.325 45.9586L216.419 39.5034C219.264 41.1793 222.543 42.4828 226.007 42.4828C228.358 42.4828 229.533 41.8621 229.533 40.4345C229.533 39.3172 228.729 38.7586 227.059 37.9517L221.924 35.7172C217.408 33.731 215.491 30.8759 215.491 27.1517C215.491 21.5655 219.388 18.4621 226.564 18.4621C229.843 18.4621 233.369 19.2069 236.71 20.4483L234.173 26.8414C231.575 25.7241 228.729 24.8552 226.131 24.8552C223.904 24.8552 223.223 25.5379 223.223 26.5931C223.223 27.7103 223.966 28.331 225.945 29.2L231.08 31.4345C235.101 33.1103 237.39 35.531 237.39 39.8138C237.39 46.1448 232.688 49 225.574 49Z" stroke="black" stroke-width="2" mask="url(#path-1-outside-1_661_42)"/>
<path d="M257.927 25.7862H252.05V37.8276C252.05 40.1241 252.854 41.0552 255.081 41.0552H256.38V48.131H253.04C247.657 48.131 244.441 45.4 244.441 39.6276V25.7862H239.182V19.3931H244.441V7.91035H252.05V19.3931H257.927V25.7862Z" stroke="black" stroke-width="2" mask="url(#path-1-outside-1_661_42)"/>
<path d="M297.044 28.0828V35.1586H279.104V28.0828H297.044Z" stroke="black" stroke-width="2" mask="url(#path-1-outside-1_661_42)"/>
<path d="M320.437 48.069V19.3931H327.922V23.7379H328.046C329.655 20.2 332.871 18.4621 336.769 18.4621C340.976 18.4621 344.007 20.3862 345.553 24.1724H345.677C347.595 20.3241 351.121 18.4621 355.018 18.4621C360.586 18.4621 364.978 22.1241 364.978 29.8828V48.069H357.369V31.4965C357.369 27.7103 355.637 25.5379 352.173 25.5379C348.894 25.5379 346.419 27.6483 346.419 33.4828V48.069H338.934V31.4965C338.934 27.7103 337.264 25.5379 333.799 25.5379C330.521 25.5379 327.984 27.6483 327.984 33.5448V48.069H320.437Z" stroke="black" stroke-width="2" mask="url(#path-1-outside-1_661_42)"/>
<path d="M383.306 49C375.821 49 369.573 43.5379 369.573 33.731C369.573 23.9241 375.821 18.4621 383.306 18.4621C387.946 18.4621 391.039 20.4483 392.833 23.4276H392.957V19.3931H400.504V48.069H392.957V44.0345H392.833C391.039 47.0138 387.946 49 383.306 49ZM385.224 41.8C389.802 41.8 392.957 38.5724 392.957 33.731C392.957 28.8897 389.802 25.6621 385.224 25.6621C380.646 25.6621 377.491 28.8897 377.491 33.731C377.491 38.5724 380.646 41.8 385.224 41.8Z" stroke="black" stroke-width="2" mask="url(#path-1-outside-1_661_42)"/>
<path d="M435.403 48.069H425.505L414.802 34.4138V48.069H407.193V4.62069H414.802V31.1862L424.206 19.3931H433.856L422.164 32.4276L435.403 48.069Z" stroke="black" stroke-width="2" mask="url(#path-1-outside-1_661_42)"/>
<path d="M449.424 18.4621C458.085 18.4621 463.282 23.9862 463.282 33.7931V35.2828H441.939C442.372 39.6897 445.589 42.2345 449.981 42.2345C454.064 42.2345 456.91 39.9379 458.518 38.3241L462.354 43.8483C459.817 46.2069 455.982 49 449.981 49C440.64 49 434.577 42.9172 434.577 33.7931C434.577 24.669 440.454 18.4621 449.424 18.4621ZM449.053 24.6069C445.403 24.6069 442.743 26.4069 442.125 30.3793H455.611C455.363 26.7172 452.765 24.6069 449.053 24.6069Z" stroke="black" stroke-width="2" mask="url(#path-1-outside-1_661_42)"/>
<path d="M493.534 4.99311V13.3724H484.873V4.99311H493.534ZM485.368 48.069V19.3931H492.977V48.069H485.368Z" stroke="black" stroke-width="2" mask="url(#path-1-outside-1_661_42)"/>
<path d="M516.072 25.7862H510.195V37.8276C510.195 40.1241 511 41.0552 513.227 41.0552H514.526V48.131H511.185C505.803 48.131 502.586 45.4 502.586 39.6276V25.7862H497.328V19.3931H502.586V7.91035H510.195V19.3931H516.072V25.7862Z" stroke="black" stroke-width="2" mask="url(#path-1-outside-1_661_42)"/>
<path d="M571.744 19.3931H579.662L569.702 48.069H562.959L556.402 29.3241L549.844 48.069H543.101L533.141 19.3931H541.06L546.565 38.2621L552.814 19.3931H559.99L566.238 38.2621L571.744 19.3931Z" stroke="black" stroke-width="2" mask="url(#path-1-outside-1_661_42)"/>
<path d="M595.587 18.4621C604.681 18.4621 611.424 24.731 611.424 33.731C611.424 42.731 604.681 49 595.587 49C586.493 49 579.75 42.731 579.75 33.731C579.75 24.731 586.493 18.4621 595.587 18.4621ZM595.587 25.6621C590.947 25.6621 587.545 28.8276 587.545 33.731C587.545 38.6345 590.947 41.8 595.587 41.8C600.227 41.8 603.568 38.6345 603.568 33.731C603.568 28.8276 600.227 25.6621 595.587 25.6621Z" stroke="black" stroke-width="2" mask="url(#path-1-outside-1_661_42)"/>
<path d="M633.724 18.5241V26.7172H632.858C626.796 26.7172 623.888 29.3241 623.888 36.3379V48.069H616.341V19.3931H623.826V25.4759H623.95C625.435 21.0069 628.713 18.5241 633.415 18.5241H633.724Z" stroke="black" stroke-width="2" mask="url(#path-1-outside-1_661_42)"/>
<path d="M666 48.069H656.102L645.4 34.4138V48.069H637.79V4.62069H645.4V31.1862L654.803 19.3931H664.453L652.761 32.4276L666 48.069Z" stroke="black" stroke-width="2" mask="url(#path-1-outside-1_661_42)"/>
<path d="M28.6032 47C24.8527 47 20.5747 46.1389 17 44.1872L19.9301 38.2171C22.6258 39.767 25.7317 40.9725 29.0135 40.9725C31.2403 40.9725 32.3538 40.3985 32.3538 39.0782C32.3538 38.0449 31.592 37.5282 30.0097 36.782L25.1457 34.7154C20.8677 32.8785 19.0511 30.2379 19.0511 26.7936C19.0511 21.6272 22.743 18.7569 29.5409 18.7569C32.6468 18.7569 35.9871 19.4458 39.1517 20.5939L36.749 26.5066C34.2877 25.4733 31.592 24.6696 29.1307 24.6696C27.021 24.6696 26.3764 25.3011 26.3764 26.2769C26.3764 27.3102 27.0796 27.8843 28.9549 28.6879L33.8188 30.7545C37.628 32.3044 39.7963 34.5432 39.7963 38.5041C39.7963 44.3594 35.3425 47 28.6032 47Z" fill="white"/>
<path d="M56.3203 18.7569C64.5246 18.7569 69.4472 23.866 69.4472 32.9359V34.3136H49.2294C49.6396 38.3893 52.6869 40.7429 56.8477 40.7429C60.7155 40.7429 63.4112 38.6189 64.9348 37.1264L68.5682 42.2354C66.1655 44.4168 62.5321 47 56.8477 47C47.9988 47 42.2557 41.3743 42.2557 32.9359C42.2557 24.4974 47.823 18.7569 56.3203 18.7569ZM55.9687 24.44C52.5111 24.44 49.9912 26.1047 49.4052 29.7786H62.1805C61.9461 26.3918 59.4848 24.44 55.9687 24.44Z" fill="white"/>
<path d="M81.3242 5.95572V46.1389H74.1161V5.95572H81.3242Z" fill="white"/>
<path d="M95.1736 5.95572V46.1389H87.9655V5.95572H95.1736Z" fill="white"/>
<path d="M125.803 6.30015V14.0498H117.599V6.30015H125.803ZM118.068 46.1389V19.618H125.276V46.1389H118.068Z" fill="white"/>
<path d="M147.154 25.5307H141.587V36.6672C141.587 38.7911 142.348 39.6522 144.458 39.6522H145.689V46.1963H142.524C137.426 46.1963 134.379 43.6705 134.379 38.3319V25.5307H129.397V19.618H134.379V8.99817H141.587V19.618H147.154V25.5307Z" fill="white"/>
<path d="M182.159 11.9258C178.877 11.9258 177.06 13.1313 177.06 16.9774V19.618H182.627V25.5307H177.06V46.1389H169.911V25.5307H165.398V19.618H169.911V16.9774C169.911 9.3426 173.896 5.38168 181.514 5.38168H182.979V11.9258H182.159Z" fill="white"/>
<path d="M197.078 47C189.987 47 184.069 41.9484 184.069 32.8785C184.069 23.8085 189.987 18.7569 197.078 18.7569C201.474 18.7569 204.404 20.5939 206.103 23.3493H206.22V19.618H213.37V46.1389H206.22V42.4076H206.103C204.404 45.1631 201.474 47 197.078 47ZM198.895 40.3411C203.232 40.3411 206.22 37.356 206.22 32.8785C206.22 28.4009 203.232 25.4159 198.895 25.4159C194.558 25.4159 191.57 28.4009 191.57 32.8785C191.57 37.356 194.558 40.3411 198.895 40.3411Z" fill="white"/>
<path d="M228.789 47C225.039 47 220.761 46.1389 217.186 44.1872L220.116 38.2171C222.812 39.767 225.918 40.9725 229.2 40.9725C231.427 40.9725 232.54 40.3985 232.54 39.0782C232.54 38.0449 231.778 37.5282 230.196 36.782L225.332 34.7154C221.054 32.8785 219.237 30.2379 219.237 26.7936C219.237 21.6272 222.929 18.7569 229.727 18.7569C232.833 18.7569 236.173 19.4458 239.338 20.5939L236.935 26.5066C234.474 25.4733 231.778 24.6696 229.317 24.6696C227.207 24.6696 226.563 25.3011 226.563 26.2769C226.563 27.3102 227.266 27.8843 229.141 28.6879L234.005 30.7545C237.814 32.3044 239.983 34.5432 239.983 38.5041C239.983 44.3594 235.529 47 228.789 47Z" fill="white"/>
<path d="M259.437 25.5307H253.869V36.6672C253.869 38.7911 254.631 39.6522 256.741 39.6522H257.972V46.1963H254.807C249.709 46.1963 246.661 43.6705 246.661 38.3319V25.5307H241.68V19.618H246.661V8.99817H253.869V19.618H259.437V25.5307Z" fill="white"/>
<path d="M296.492 27.6547V34.1988H279.498V27.6547H296.492Z" fill="white"/>
<path d="M318.652 46.1389V19.618H325.743V23.6363H325.86C327.384 20.3643 330.431 18.7569 334.123 18.7569C338.108 18.7569 340.979 20.5365 342.444 24.0382H342.562C344.378 20.4791 347.719 18.7569 351.411 18.7569C356.685 18.7569 360.846 22.1438 360.846 29.3194V46.1389H353.637V30.8119C353.637 27.3102 351.997 25.3011 348.715 25.3011C345.609 25.3011 343.265 27.2528 343.265 32.6489V46.1389H336.174V30.8119C336.174 27.3102 334.592 25.3011 331.31 25.3011C328.204 25.3011 325.801 27.2528 325.801 32.7063V46.1389H318.652Z" fill="white"/>
<path d="M378.207 47C371.117 47 365.198 41.9484 365.198 32.8785C365.198 23.8085 371.117 18.7569 378.207 18.7569C382.603 18.7569 385.533 20.5939 387.232 23.3493H387.349V19.618H394.499V46.1389H387.349V42.4076H387.232C385.533 45.1631 382.603 47 378.207 47ZM380.024 40.3411C384.361 40.3411 387.349 37.356 387.349 32.8785C387.349 28.4009 384.361 25.4159 380.024 25.4159C375.688 25.4159 372.699 28.4009 372.699 32.8785C372.699 37.356 375.688 40.3411 380.024 40.3411Z" fill="white"/>
<path d="M427.558 46.1389H418.181L408.043 33.5099V46.1389H400.835V5.95572H408.043V30.5249L416.951 19.618H426.093L415.017 31.673L427.558 46.1389Z" fill="white"/>
<path d="M440.84 18.7569C449.045 18.7569 453.967 23.866 453.967 32.9359V34.3136H433.75C434.16 38.3893 437.207 40.7429 441.368 40.7429C445.236 40.7429 447.931 38.6189 449.455 37.1264L453.088 42.2354C450.686 44.4168 447.052 47 441.368 47C432.519 47 426.776 41.3743 426.776 32.9359C426.776 24.4974 432.343 18.7569 440.84 18.7569ZM440.489 24.44C437.031 24.44 434.511 26.1047 433.925 29.7786H446.701C446.466 26.3918 444.005 24.44 440.489 24.44Z" fill="white"/>
<path d="M482.625 6.30015V14.0498H474.42V6.30015H482.625ZM474.889 46.1389V19.618H482.097V46.1389H474.889Z" fill="white"/>
<path d="M503.975 25.5307H498.408V36.6672C498.408 38.7911 499.17 39.6522 501.279 39.6522H502.51V46.1963H499.346C494.247 46.1963 491.2 43.6705 491.2 38.3319V25.5307H486.219V19.618H491.2V8.99817H498.408V19.618H503.975V25.5307Z" fill="white"/>
<path d="M556.712 19.618H564.213L554.778 46.1389H548.391L542.179 28.8027L535.967 46.1389H529.579L520.144 19.618H527.645L532.861 37.069L538.78 19.618H545.578L551.497 37.069L556.712 19.618Z" fill="white"/>
<path d="M579.299 18.7569C587.913 18.7569 594.301 24.5548 594.301 32.8785C594.301 41.2021 587.913 47 579.299 47C570.684 47 564.297 41.2021 564.297 32.8785C564.297 24.5548 570.684 18.7569 579.299 18.7569ZM579.299 25.4159C574.904 25.4159 571.68 28.3435 571.68 32.8785C571.68 37.4134 574.904 40.3411 579.299 40.3411C583.694 40.3411 586.858 37.4134 586.858 32.8785C586.858 28.3435 583.694 25.4159 579.299 25.4159Z" fill="white"/>
<path d="M615.426 18.8144V26.3918H614.605C608.862 26.3918 606.108 28.8027 606.108 35.2895V46.1389H598.958V19.618H606.049V25.2437H606.167C607.573 21.1105 610.679 18.8144 615.133 18.8144H615.426Z" fill="white"/>
<path d="M646 46.1389H636.624L626.486 33.5099V46.1389H619.277V5.95572H626.486V30.5249L635.393 19.618H644.535L633.459 31.673L646 46.1389Z" fill="white"/>
<path d="M28.6032 41.6183C24.8527 41.6183 20.5747 40.7573 17 38.8055L19.9301 32.8354C22.6258 34.3853 25.7317 35.5908 29.0135 35.5908C31.2403 35.5908 32.3538 35.0168 32.3538 33.6965C32.3538 32.6632 31.592 32.1466 30.0097 31.4003L25.1457 29.3337C20.8677 27.4968 19.0511 24.8562 19.0511 21.4119C19.0511 16.2455 22.743 13.3753 29.5409 13.3753C32.6468 13.3753 35.9871 14.0641 39.1517 15.2122L36.749 21.1249C34.2877 20.0916 31.592 19.2879 29.1307 19.2879C27.021 19.2879 26.3764 19.9194 26.3764 20.8953C26.3764 21.9286 27.0796 22.5026 28.9549 23.3063L33.8188 25.3728C37.628 26.9227 39.7963 29.1615 39.7963 33.1224C39.7963 38.9777 35.3425 41.6183 28.6032 41.6183Z" fill="black"/>
<path d="M56.3203 13.3753C64.5246 13.3753 69.4472 18.4843 69.4472 27.5542V28.9319H49.2294C49.6396 33.0076 52.6869 35.3612 56.8477 35.3612C60.7155 35.3612 63.4112 33.2373 64.9348 31.7447L68.5682 36.8537C66.1655 39.0351 62.5321 41.6183 56.8477 41.6183C47.9988 41.6183 42.2557 35.9927 42.2557 27.5542C42.2557 19.1157 47.823 13.3753 56.3203 13.3753ZM55.9687 19.0583C52.5111 19.0583 49.9912 20.7231 49.4052 24.3969H62.1805C61.9461 21.0101 59.4848 19.0583 55.9687 19.0583Z" fill="black"/>
<path d="M81.3242 0.574045V40.7572H74.1161V0.574045H81.3242Z" fill="black"/>
<path d="M95.1736 0.574045V40.7572H87.9655V0.574045H95.1736Z" fill="black"/>
<path d="M125.803 0.918475V8.66809H117.599V0.918475H125.803ZM118.068 40.7572V14.2363H125.276V40.7572H118.068Z" fill="black"/>
<path d="M147.154 20.149H141.587V31.2855C141.587 33.4095 142.348 34.2705 144.458 34.2705H145.689V40.8147H142.524C137.426 40.8147 134.379 38.2889 134.379 32.9502V20.149H129.397V14.2363H134.379V3.61649H141.587V14.2363H147.154V20.149Z" fill="black"/>
<path d="M182.159 6.54412C178.877 6.54412 177.06 7.74962 177.06 11.5957V14.2363H182.627V20.149H177.06V40.7572H169.911V20.149H165.398V14.2363H169.911V11.5957C169.911 3.96092 173.896 0 181.514 0H182.979V6.54412H182.159Z" fill="black"/>
<path d="M197.078 41.6183C189.987 41.6183 184.069 36.5667 184.069 27.4968C184.069 18.4269 189.987 13.3753 197.078 13.3753C201.474 13.3753 204.404 15.2122 206.103 17.9676H206.22V14.2363H213.37V40.7572H206.22V37.026H206.103C204.404 39.7814 201.474 41.6183 197.078 41.6183ZM198.895 34.9594C203.232 34.9594 206.22 31.9743 206.22 27.4968C206.22 23.0192 203.232 20.0342 198.895 20.0342C194.558 20.0342 191.57 23.0192 191.57 27.4968C191.57 31.9743 194.558 34.9594 198.895 34.9594Z" fill="black"/>
<path d="M228.789 41.6183C225.039 41.6183 220.761 40.7573 217.186 38.8055L220.116 32.8354C222.812 34.3853 225.918 35.5908 229.2 35.5908C231.427 35.5908 232.54 35.0168 232.54 33.6965C232.54 32.6632 231.778 32.1466 230.196 31.4003L225.332 29.3337C221.054 27.4968 219.237 24.8562 219.237 21.4119C219.237 16.2455 222.929 13.3753 229.727 13.3753C232.833 13.3753 236.173 14.0641 239.338 15.2122L236.935 21.1249C234.474 20.0916 231.778 19.2879 229.317 19.2879C227.207 19.2879 226.563 19.9194 226.563 20.8953C226.563 21.9286 227.266 22.5026 229.141 23.3063L234.005 25.3728C237.814 26.9227 239.983 29.1615 239.983 33.1224C239.983 38.9777 235.529 41.6183 228.789 41.6183Z" fill="black"/>
<path d="M259.437 20.149H253.869V31.2855C253.869 33.4095 254.631 34.2705 256.741 34.2705H257.972V40.8147H254.807C249.709 40.8147 246.661 38.2889 246.661 32.9502V20.149H241.68V14.2363H246.661V3.61649H253.869V14.2363H259.437V20.149Z" fill="black"/>
<path d="M296.492 22.273V28.8171H279.498V22.273H296.492Z" fill="black"/>
<path d="M318.652 40.7572V14.2363H325.743V18.2547H325.86C327.384 14.9826 330.431 13.3753 334.123 13.3753C338.108 13.3753 340.979 15.1548 342.444 18.6565H342.562C344.378 15.0974 347.719 13.3753 351.411 13.3753C356.685 13.3753 360.846 16.7621 360.846 23.9377V40.7572H353.637V25.4302C353.637 21.9286 351.997 19.9194 348.715 19.9194C345.609 19.9194 343.265 21.8711 343.265 27.2672V40.7572H336.174V25.4302C336.174 21.9286 334.592 19.9194 331.31 19.9194C328.204 19.9194 325.801 21.8711 325.801 27.3246V40.7572H318.652Z" fill="black"/>
<path d="M378.207 41.6183C371.117 41.6183 365.198 36.5667 365.198 27.4968C365.198 18.4269 371.117 13.3753 378.207 13.3753C382.603 13.3753 385.533 15.2122 387.232 17.9676H387.349V14.2363H394.499V40.7572H387.349V37.026H387.232C385.533 39.7814 382.603 41.6183 378.207 41.6183ZM380.024 34.9594C384.361 34.9594 387.349 31.9743 387.349 27.4968C387.349 23.0192 384.361 20.0342 380.024 20.0342C375.688 20.0342 372.699 23.0192 372.699 27.4968C372.699 31.9743 375.688 34.9594 380.024 34.9594Z" fill="black"/>
<path d="M427.558 40.7572H418.181L408.043 28.1282V40.7572H400.835V0.574045H408.043V25.1432L416.951 14.2363H426.093L415.017 26.2913L427.558 40.7572Z" fill="black"/>
<path d="M440.84 13.3753C449.045 13.3753 453.967 18.4843 453.967 27.5542V28.9319H433.75C434.16 33.0076 437.207 35.3612 441.368 35.3612C445.236 35.3612 447.931 33.2373 449.455 31.7447L453.088 36.8537C450.686 39.0351 447.052 41.6183 441.368 41.6183C432.519 41.6183 426.776 35.9927 426.776 27.5542C426.776 19.1157 432.343 13.3753 440.84 13.3753ZM440.489 19.0583C437.031 19.0583 434.511 20.7231 433.925 24.3969H446.701C446.466 21.0101 444.005 19.0583 440.489 19.0583Z" fill="black"/>
<path d="M482.625 0.918475V8.66809H474.42V0.918475H482.625ZM474.889 40.7572V14.2363H482.097V40.7572H474.889Z" fill="black"/>
<path d="M503.975 20.149H498.408V31.2855C498.408 33.4095 499.17 34.2705 501.279 34.2705H502.51V40.8147H499.346C494.247 40.8147 491.2 38.2889 491.2 32.9502V20.149H486.219V14.2363H491.2V3.61649H498.408V14.2363H503.975V20.149Z" fill="black"/>
<path d="M556.712 14.2363H564.213L554.778 40.7572H548.391L542.179 23.4211L535.967 40.7572H529.579L520.144 14.2363H527.645L532.861 31.6873L538.78 14.2363H545.578L551.497 31.6873L556.712 14.2363Z" fill="black"/>
<path d="M579.299 13.3753C587.913 13.3753 594.301 19.1731 594.301 27.4968C594.301 35.8205 587.913 41.6183 579.299 41.6183C570.684 41.6183 564.297 35.8205 564.297 27.4968C564.297 19.1731 570.684 13.3753 579.299 13.3753ZM579.299 20.0342C574.904 20.0342 571.68 22.9618 571.68 27.4968C571.68 32.0318 574.904 34.9594 579.299 34.9594C583.694 34.9594 586.858 32.0318 586.858 27.4968C586.858 22.9618 583.694 20.0342 579.299 20.0342Z" fill="black"/>
<path d="M615.426 13.4327V21.0101H614.605C608.862 21.0101 606.108 23.4211 606.108 29.9078V40.7572H598.958V14.2363H606.049V19.862H606.167C607.573 15.7289 610.679 13.4327 615.133 13.4327H615.426Z" fill="black"/>
<path d="M646 40.7572H636.624L626.486 28.1282V40.7572H619.277V0.574045H626.486V25.1432L635.393 14.2363H644.535L633.459 26.2913L646 40.7572Z" fill="black"/>
</svg>
