<svg width="250" height="31" viewBox="0 0 250 31" fill="none" xmlns="http://www.w3.org/2000/svg">
<path d="M30.3722 14.4531V16.712C30.3722 20.8951 29.0459 24.2834 26.3931 26.877C23.7403 29.4705 20.3139 30.7673 16.1137 30.7673C11.6371 30.7673 7.9205 29.3032 4.96378 26.375C2.03469 23.4189 0.570145 19.8214 0.570145 15.5825C0.570145 11.3157 2.02087 7.70427 4.92233 4.74818C7.85142 1.7921 11.4713 0.314056 15.7821 0.314056C18.4901 0.314056 20.9632 0.941528 23.2015 2.19647C25.4398 3.42353 27.1806 5.06889 28.4241 7.13258L23.5331 9.97711C22.8423 8.77794 21.7922 7.80188 20.3829 7.04891C19.0013 6.29595 17.4539 5.91946 15.7406 5.91946C12.9773 5.91946 10.6976 6.83976 8.90147 8.68034C7.13296 10.493 6.24871 12.7938 6.24871 15.5825C6.24871 18.3434 7.14678 20.6302 8.94292 22.4429C10.7667 24.2277 13.1708 25.1201 16.1551 25.1201C18.3657 25.1201 20.1895 24.632 21.6264 23.656C23.091 22.652 24.0858 21.2855 24.6108 19.5565H15.8235V14.4531H30.3722Z" fill="#00B1B6"/>
<path d="M40.1608 24.6599H52.3883V30.1817H34.4408V0.899696H52.1811V6.42144H40.1608V12.6543H51.1448V18.0924H40.1608V24.6599Z" fill="#00B1B6"/>
<path d="M75.6113 0.899696V6.42144H67.7774V30.1817H62.0574V6.42144H54.2649V0.899696H75.6113Z" fill="#00B1B6"/>
<path d="M138.284 0.899696V30.1817H132.606V11.1902L124.44 24.7854H123.777L115.612 11.2321V30.1817H109.892V0.899696H115.777L124.109 14.7459L132.399 0.899696H138.284Z" fill="#00B1B6"/>
<path d="M168.104 26.375C165.175 29.3032 161.611 30.7673 157.41 30.7673C153.21 30.7673 149.645 29.3032 146.716 26.375C143.815 23.4189 142.364 19.8075 142.364 15.5407C142.364 11.2739 143.815 7.67638 146.716 4.74818C149.645 1.7921 153.21 0.314056 157.41 0.314056C161.611 0.314056 165.175 1.7921 168.104 4.74818C171.033 7.67638 172.498 11.2739 172.498 15.5407C172.498 19.8075 171.033 23.4189 168.104 26.375ZM150.737 22.4429C152.533 24.2277 154.758 25.1201 157.41 25.1201C160.063 25.1201 162.288 24.2277 164.084 22.4429C165.88 20.6302 166.778 18.3294 166.778 15.5407C166.778 12.7519 165.88 10.4512 164.084 8.6385C162.288 6.82581 160.063 5.91946 157.41 5.91946C154.758 5.91946 152.533 6.82581 150.737 8.6385C148.941 10.4512 148.043 12.7519 148.043 15.5407C148.043 18.3294 148.941 20.6302 150.737 22.4429Z" fill="#00B1B6"/>
<path d="M193.305 0.899696H199.025V30.1817H194.673L182.238 12.2778V30.1817H176.518V0.899696H180.87L193.305 18.7617V0.899696Z" fill="#00B1B6"/>
<path d="M210.127 24.6599H222.355V30.1817H204.407V0.899696H222.148V6.42144H210.127V12.6543H221.112V18.0924H210.127V24.6599Z" fill="#00B1B6"/>
<path d="M249.35 0.899696L239.402 18.7617V30.1817H233.723V18.7617L223.817 0.899696H230.283L236.583 13.1145L242.884 0.899696H249.35Z" fill="#00B1B6"/>
<g style="mix-blend-mode:luminosity">
<path d="M84.2475 0.944739L81.3994 5.89114V9.0536H79.7737V5.89114L76.9375 0.944739H78.7887L80.5925 4.32729L82.3963 0.944739H84.2475Z" fill="#00B1B6"/>
<path d="M91.4306 7.99944C90.592 8.81033 89.5715 9.21577 88.3689 9.21577C87.1664 9.21577 86.1459 8.81033 85.3073 7.99944C84.4766 7.18084 84.0613 6.18074 84.0613 4.99917C84.0613 3.81759 84.4766 2.82136 85.3073 2.01047C86.1459 1.19187 87.1664 0.782562 88.3689 0.782562C89.5715 0.782562 90.592 1.19187 91.4306 2.01047C92.2692 2.82136 92.6885 3.81759 92.6885 4.99917C92.6885 6.18074 92.2692 7.18084 91.4306 7.99944ZM86.4584 6.91054C86.9726 7.40479 87.6095 7.65192 88.3689 7.65192C89.1284 7.65192 89.7653 7.40479 90.2795 6.91054C90.7937 6.40856 91.0508 5.77144 91.0508 4.99917C91.0508 4.2269 90.7937 3.58977 90.2795 3.08779C89.7653 2.58582 89.1284 2.33483 88.3689 2.33483C87.6095 2.33483 86.9726 2.58582 86.4584 3.08779C85.9442 3.58977 85.6871 4.2269 85.6871 4.99917C85.6871 5.77144 85.9442 6.40856 86.4584 6.91054Z" fill="#00B1B6"/>
<path d="M96.8787 9.21577C95.9531 9.21577 95.1936 8.96092 94.6003 8.45122C94.007 7.94152 93.7103 7.25806 93.7103 6.40084V0.944739H95.336V6.27342C95.336 6.69817 95.4587 7.0341 95.7039 7.28123C95.9571 7.52836 96.3487 7.65192 96.8787 7.65192C97.4088 7.65192 97.7964 7.52836 98.0417 7.28123C98.2948 7.0341 98.4214 6.69817 98.4214 6.27342V0.944739H100.059V6.40084C100.059 7.25806 99.7624 7.94152 99.169 8.45122C98.5757 8.96092 97.8123 9.21577 96.8787 9.21577Z" fill="#00B1B6"/>
<path d="M106.091 9.0536L104.418 6.23866H103.172V9.0536H101.534V0.944739H104.857C105.624 0.944739 106.277 1.20731 106.815 1.73246C107.353 2.2576 107.622 2.89087 107.622 3.63225C107.622 4.13422 107.476 4.60145 107.183 5.03392C106.89 5.45867 106.503 5.77916 106.02 5.9954L107.859 9.0536H106.091ZM103.172 2.43909V4.83699H104.857C105.166 4.83699 105.431 4.72115 105.652 4.48947C105.874 4.25006 105.984 3.96432 105.984 3.63225C105.984 3.30017 105.874 3.01829 105.652 2.78661C105.431 2.55493 105.166 2.43909 104.857 2.43909H103.172Z" fill="#00B1B6"/>
</g>
<g style="mix-blend-mode:luminosity">
<path d="M84.2475 11.7205L81.3994 16.6669V19.8294H79.7737V16.6669L76.9375 11.7205H78.7887L80.5925 15.103L82.3963 11.7205H84.2475Z" fill="#00B1B6"/>
<path d="M91.4306 18.7752C90.592 19.5861 89.5715 19.9915 88.3689 19.9915C87.1664 19.9915 86.1459 19.5861 85.3073 18.7752C84.4766 17.9566 84.0613 16.9565 84.0613 15.7749C84.0613 14.5933 84.4766 13.5971 85.3073 12.7862C86.1459 11.9676 87.1664 11.5583 88.3689 11.5583C89.5715 11.5583 90.592 11.9676 91.4306 12.7862C92.2692 13.5971 92.6885 14.5933 92.6885 15.7749C92.6885 16.9565 92.2692 17.9566 91.4306 18.7752ZM86.4584 17.6863C86.9726 18.1806 87.6095 18.4277 88.3689 18.4277C89.1284 18.4277 89.7653 18.1806 90.2795 17.6863C90.7937 17.1843 91.0508 16.5472 91.0508 15.7749C91.0508 15.0027 90.7937 14.3655 90.2795 13.8636C89.7653 13.3616 89.1284 13.1106 88.3689 13.1106C87.6095 13.1106 86.9726 13.3616 86.4584 13.8636C85.9442 14.3655 85.6871 15.0027 85.6871 15.7749C85.6871 16.5472 85.9442 17.1843 86.4584 17.6863Z" fill="#00B1B6"/>
<path d="M96.8787 19.9915C95.9531 19.9915 95.1936 19.7367 94.6003 19.227C94.007 18.7173 93.7103 18.0338 93.7103 17.1766V11.7205H95.336V17.0492C95.336 17.4739 95.4587 17.8099 95.7039 18.057C95.9571 18.3041 96.3487 18.4277 96.8787 18.4277C97.4088 18.4277 97.7964 18.3041 98.0417 18.057C98.2948 17.8099 98.4214 17.4739 98.4214 17.0492V11.7205H100.059V17.1766C100.059 18.0338 99.7624 18.7173 99.169 19.227C98.5757 19.7367 97.8123 19.9915 96.8787 19.9915Z" fill="#00B1B6"/>
<path d="M106.091 19.8294L104.418 17.0144H103.172V19.8294H101.534V11.7205H104.857C105.624 11.7205 106.277 11.9831 106.815 12.5082C107.353 13.0334 107.622 13.6666 107.622 14.408C107.622 14.91 107.476 15.3772 107.183 15.8097C106.89 16.2344 106.503 16.5549 106.02 16.7712L107.859 19.8294H106.091ZM103.172 13.2148V15.6127H104.857C105.166 15.6127 105.431 15.4969 105.652 15.2652C105.874 15.0258 105.984 14.7401 105.984 14.408C105.984 14.0759 105.874 13.794 105.652 13.5624C105.431 13.3307 105.166 13.2148 104.857 13.2148H103.172Z" fill="#00B1B6"/>
</g>
<g style="mix-blend-mode:luminosity">
<path d="M84.2475 22.0278L81.3994 26.9742V30.1366H79.7737V26.9742L76.9375 22.0278H78.7887L80.5925 25.4103L82.3963 22.0278H84.2475Z" fill="#00B1B6"/>
<path d="M91.4306 29.0825C90.592 29.8934 89.5715 30.2988 88.3689 30.2988C87.1664 30.2988 86.1459 29.8934 85.3073 29.0825C84.4766 28.2639 84.0613 27.2638 84.0613 26.0822C84.0613 24.9006 84.4766 23.9044 85.3073 23.0935C86.1459 22.2749 87.1664 21.8656 88.3689 21.8656C89.5715 21.8656 90.592 22.2749 91.4306 23.0935C92.2692 23.9044 92.6885 24.9006 92.6885 26.0822C92.6885 27.2638 92.2692 28.2639 91.4306 29.0825ZM86.4584 27.9936C86.9726 28.4878 87.6095 28.735 88.3689 28.735C89.1284 28.735 89.7653 28.4878 90.2795 27.9936C90.7937 27.4916 91.0508 26.8545 91.0508 26.0822C91.0508 25.3099 90.7937 24.6728 90.2795 24.1708C89.7653 23.6689 89.1284 23.4179 88.3689 23.4179C87.6095 23.4179 86.9726 23.6689 86.4584 24.1708C85.9442 24.6728 85.6871 25.3099 85.6871 26.0822C85.6871 26.8545 85.9442 27.4916 86.4584 27.9936Z" fill="#00B1B6"/>
<path d="M96.8787 30.2988C95.9531 30.2988 95.1936 30.044 94.6003 29.5343C94.007 29.0246 93.7103 28.3411 93.7103 27.4839V22.0278H95.336V27.3565C95.336 27.7812 95.4587 28.1171 95.7039 28.3643C95.9571 28.6114 96.3487 28.735 96.8787 28.735C97.4088 28.735 97.7964 28.6114 98.0417 28.3643C98.2948 28.1171 98.4214 27.7812 98.4214 27.3565V22.0278H100.059V27.4839C100.059 28.3411 99.7624 29.0246 99.169 29.5343C98.5757 30.044 97.8122 30.2988 96.8787 30.2988Z" fill="#00B1B6"/>
<path d="M106.091 30.1366L104.418 27.3217H103.172V30.1366H101.534V22.0278H104.857C105.624 22.0278 106.277 22.2904 106.815 22.8155C107.353 23.3406 107.622 23.9739 107.622 24.7153C107.622 25.2173 107.476 25.6845 107.183 26.117C106.89 26.5417 106.503 26.8622 106.02 27.0784L107.859 30.1366H106.091ZM103.172 23.5221V25.92H104.857C105.166 25.92 105.431 25.8042 105.652 25.5725C105.874 25.3331 105.984 25.0474 105.984 24.7153C105.984 24.3832 105.874 24.1013 105.652 23.8696C105.431 23.638 105.166 23.5221 104.857 23.5221H103.172Z" fill="#00B1B6"/>
</g>
</svg>
