<svg width="156" height="42" viewBox="0 0 156 42" fill="none" xmlns="http://www.w3.org/2000/svg">
<path d="M8.00135 39.8514H8.50135V39.3514V28.8315H13.8636C17.1987 28.8315 20.0277 27.6975 22.3178 25.4287C24.6075 23.1602 25.7545 20.3641 25.7545 17.0721C25.7545 13.7802 24.6075 10.984 22.3178 8.71553C20.0277 6.4467 17.1987 5.31268 13.8636 5.31268H1.42419H0.924194V5.81268V39.3514V39.8514H1.42419H8.00135ZM48.5053 5.31268H48.0053V5.81268V18.6323H36.6136V5.81268V5.31268H36.1136H29.5365H29.0365V5.81268V39.3514V39.8514H29.5365H36.1136H36.6136V39.3514V25.9568H48.0053V39.3514V39.8514H48.5053H55.0348H55.5348V39.3514V5.81268V5.31268H55.0348H48.5053ZM89.6574 35.3457L89.6591 35.344C93.1227 31.8621 94.8566 27.5978 94.8566 22.582C94.8566 17.5668 93.123 13.3179 89.6586 9.86751C86.1957 6.3865 81.9689 4.64191 77.0082 4.64191C72.0472 4.64191 67.8203 6.38666 64.3573 9.86801C60.9245 13.319 59.2074 17.5677 59.2074 22.582C59.2074 27.5963 60.9244 31.86 64.3556 35.3423L64.359 35.3457C67.8224 38.7945 72.0487 40.5222 77.0082 40.5222C81.9677 40.5222 86.194 38.7945 89.6574 35.3457ZM119.638 5.81268V5.31268H119.138H94.5927H94.0927V5.81268V12.1371V12.6371H94.5927H103.053V39.3514V39.8514H103.553H110.13H110.63V39.3514V12.6371H119.138H119.638V12.1371V5.81268ZM149.326 35.3457L149.328 35.344C152.791 31.8621 154.525 27.5978 154.525 22.582C154.525 17.5662 152.791 13.317 149.326 9.86633C145.863 6.3861 141.637 4.64191 136.677 4.64191C131.716 4.64191 127.489 6.38666 124.026 9.86801C120.593 13.319 118.876 17.5677 118.876 22.582C118.876 27.5963 120.593 31.86 124.024 35.3423L124.028 35.3457C127.491 38.7945 131.717 40.5222 136.677 40.5222C141.636 40.5222 145.863 38.7945 149.326 35.3457ZM18.225 17.0721C18.225 18.3903 17.8073 19.4789 16.9796 20.3698C16.1582 21.2226 15.132 21.6508 13.8636 21.6508H8.50135V12.4934H13.8636C15.1335 12.4934 16.1605 12.9226 16.9824 13.7773C17.8045 14.6323 18.225 15.7172 18.225 17.0721ZM77.0082 33.054C74.0831 33.054 71.6544 32.0793 69.688 30.1337C67.7257 28.1603 66.7369 25.6566 66.7369 22.582C66.7369 19.5068 67.7262 17.0027 69.6893 15.0291C71.6565 13.0515 74.0848 12.0622 77.0082 12.0622C79.9316 12.0622 82.3599 13.0515 84.3271 15.0291C86.2902 17.0027 87.2795 19.5068 87.2795 22.582C87.2795 25.6566 86.2907 28.1603 84.3284 30.1337C82.362 32.0793 79.9333 33.054 77.0082 33.054ZM136.677 33.054C133.752 33.054 131.323 32.0794 129.357 30.1338C127.395 28.1604 126.406 25.6566 126.406 22.582C126.406 19.5068 127.395 17.0027 129.358 15.0291C131.325 13.0515 133.754 12.0622 136.677 12.0622C139.6 12.0622 142.029 13.0515 143.996 15.0291C145.959 17.0027 146.948 19.5068 146.948 22.582C146.948 25.6561 145.96 28.1596 143.998 30.1328C142.031 32.079 139.602 33.054 136.677 33.054Z" stroke="black"/>
<path d="M8.00135 37.1159H8.50135V36.6159V25.9239H13.8636C17.2011 25.9239 20.031 24.7711 22.3205 22.4674C24.6093 20.1644 25.7545 17.3274 25.7545 13.9885C25.7545 10.6496 24.6093 7.81265 22.3205 5.50964C20.031 3.20592 17.2011 2.05314 13.8636 2.05314H1.42419H0.924194V2.55314V36.6159V37.1159H1.42419H8.00135ZM48.5053 2.05314H48.0053V2.55314V15.5809H36.6136V2.55314V2.05314H36.1136H29.5365H29.0365V2.55314V36.6159V37.1159H29.5365H36.1136H36.6136V36.6159V23.0042H48.0053V36.6159V37.1159H48.5053H55.0348H55.5348V36.6159V2.55314V2.05314H55.0348H48.5053ZM89.6602 32.5393L89.6618 32.5376C93.1245 29.0022 94.8566 24.6742 94.8566 19.5845C94.8566 14.4953 93.1247 10.1828 89.6612 6.67942C86.1989 3.14477 81.9714 1.37189 77.0082 1.37189C72.0447 1.37189 67.817 3.14499 64.3546 6.6801C60.9227 10.184 59.2074 14.4962 59.2074 19.5845C59.2074 24.6728 60.9226 29.0002 64.3529 32.5359L64.3562 32.5393C67.819 36.0414 72.0462 37.7972 77.0082 37.7972C81.9701 37.7972 86.1973 36.0414 89.6602 32.5393ZM119.638 2.55314V2.05314H119.138H94.5927H94.0927V2.55314V8.97641V9.47641H94.5927H103.053V36.6159V37.1159H103.553H110.13H110.63V36.6159V9.47641H119.138H119.638V8.97641V2.55314ZM149.329 32.5393L149.331 32.5376L148.973 7.02996L149.331 6.6801C149.33 6.67987 149.33 6.67965 149.33 6.67942C145.868 3.14477 141.64 1.37189 136.677 1.37189C131.713 1.37189 127.486 3.14499 124.023 6.6801C120.591 10.184 118.876 14.4962 118.876 19.5845C118.876 24.6728 120.591 29.0002 124.022 32.5359L124.025 32.5393C127.488 36.0414 131.715 37.7972 136.677 37.7972C141.639 37.7972 145.866 36.0414 149.329 32.5393ZM18.225 13.9885C18.225 15.3314 17.8058 16.4399 16.9769 17.346C16.1549 18.2127 15.1295 18.6466 13.8636 18.6466H8.50135V9.33042H13.8636C15.1309 9.33042 16.1572 9.76527 16.9797 10.634C17.803 11.5035 18.225 12.6084 18.225 13.9885ZM77.0082 30.2279C74.0855 30.2279 71.6577 29.239 69.6908 27.2624C67.7273 25.2571 66.7369 22.7113 66.7369 19.5845C66.7369 16.4571 67.7278 13.9108 69.6921 11.9053C71.6598 9.89622 74.0873 8.89247 77.0082 8.89247C79.9291 8.89247 82.3566 9.89622 84.3243 11.9053C86.2886 13.9108 87.2795 16.4571 87.2795 19.5845C87.2795 22.7113 86.2891 25.257 84.3257 27.2623C82.3588 29.239 79.9309 30.2279 77.0082 30.2279ZM136.677 30.2279C133.754 30.2279 131.326 29.239 129.359 27.2623C127.396 25.257 126.406 22.7113 126.406 19.5845C126.406 16.4571 127.397 13.9108 129.361 11.9053C131.329 9.89622 133.756 8.89247 136.677 8.89247C139.598 8.89247 142.025 9.89622 143.993 11.9053C145.957 13.9108 146.948 16.4571 146.948 19.5845C146.948 22.7115 145.958 25.2574 143.994 27.2628C142.027 29.2392 139.599 30.2279 136.677 30.2279Z" fill="#D9D9D9" stroke="black"/>
</svg>
