<svg width="180" height="34" viewBox="0 0 180 34" fill="none" xmlns="http://www.w3.org/2000/svg">
<path d="M17.3049 31.4596L11.1965 20.9775H6.64772V31.4596H0.669296V1.26419H12.7994C15.6009 1.26419 17.9836 2.24194 19.9475 4.19746C21.9115 6.15297 22.8934 8.51109 22.8934 11.2718C22.8934 13.141 22.3591 14.8809 21.2905 16.4913C20.2219 18.073 18.8067 19.2664 17.045 20.0716L23.7599 31.4596H17.3049ZM6.64772 6.82877V15.758H12.7994C13.9258 15.758 14.8933 15.3266 15.702 14.4639C16.5107 13.5724 16.915 12.5084 16.915 11.2718C16.915 10.0352 16.5107 8.98558 15.702 8.12286C14.8933 7.26013 13.9258 6.82877 12.7994 6.82877H6.64772Z" fill="black"/>
<path d="M33.2585 25.7656H46.0385V31.4596H27.2801V1.26419H45.8219V6.95818H33.2585V13.3855H44.7388V18.9932H33.2585V25.7656Z" fill="black"/>
<path d="M80.1498 16.3619C80.1498 20.2729 78.9079 23.6663 76.4241 26.5421L79.5433 29.7773L75.2977 33.5301L72.0052 30.1224C69.6659 31.4165 67.1243 32.0635 64.3806 32.0635C60.0195 32.0635 56.3083 30.5537 53.2469 27.5342C50.1854 24.4859 48.6547 20.7618 48.6547 16.3619C48.6547 11.962 50.1854 8.25227 53.2469 5.23273C56.3083 2.18443 60.0195 0.660278 64.3806 0.660278C68.7417 0.660278 72.4529 2.18443 75.5143 5.23273C78.6046 8.25227 80.1498 11.962 80.1498 16.3619ZM64.3806 26.2401C65.507 26.2401 66.6333 26.0532 67.7597 25.6793L62.7777 20.503L67.0232 16.7501L72.3518 22.2716C73.5648 20.5461 74.1713 18.5762 74.1713 16.3619C74.1713 13.4861 73.2327 11.1136 71.3554 9.2444C69.4781 7.37516 67.1532 6.44054 64.3806 6.44054C61.608 6.44054 59.283 7.37516 57.4058 9.2444C55.5285 11.1136 54.5898 13.4861 54.5898 16.3619C54.5898 19.2089 55.5285 21.567 57.4058 23.4362C59.283 25.3055 61.608 26.2401 64.3806 26.2401Z" fill="black"/>
<path d="M95.6587 32.0635C92.2795 32.0635 89.507 31.1145 87.3409 29.2165C85.1748 27.3185 84.0917 24.7735 84.0917 21.5814V1.26419H90.0268V21.1069C90.0268 22.6885 90.4745 23.9395 91.3698 24.8597C92.294 25.78 93.7236 26.2401 95.6587 26.2401C97.5937 26.2401 99.0089 25.78 99.9042 24.8597C100.828 23.9395 101.291 22.6885 101.291 21.1069V1.26419H107.269V21.5814C107.269 24.7735 106.186 27.3185 104.02 29.2165C101.854 31.1145 99.0667 32.0635 95.6587 32.0635Z" fill="black"/>
<path d="M118.633 25.7656H131.413V31.4596H112.655V1.26419H131.197V6.95818H118.633V13.3855H130.113V18.9932H118.633V25.7656Z" fill="black"/>
<path d="M145.981 32.0635C142.977 32.0635 140.45 31.4021 138.4 30.0792C136.349 28.7276 134.905 26.9015 134.068 24.6009L139.18 21.6245C140.364 24.7016 142.689 26.2401 146.154 26.2401C147.83 26.2401 149.057 25.9381 149.837 25.3342C150.617 24.7303 151.006 23.9683 151.006 23.048C151.006 21.984 150.53 21.1644 149.577 20.5892C148.624 19.9853 146.92 19.3383 144.465 18.6481C143.107 18.2455 141.952 17.8429 140.999 17.4403C140.075 17.0377 139.136 16.5057 138.183 15.8443C137.259 15.1541 136.551 14.2913 136.06 13.2561C135.569 12.2208 135.324 11.013 135.324 9.63263C135.324 6.90066 136.291 4.72947 138.226 3.11905C140.19 1.47987 142.544 0.660278 145.288 0.660278C147.743 0.660278 149.895 1.26419 151.743 2.472C153.62 3.65106 155.079 5.30462 156.118 7.43268L151.093 10.3228C149.88 7.73463 147.945 6.44054 145.288 6.44054C144.046 6.44054 143.064 6.72812 142.342 7.30327C141.649 7.84966 141.302 8.5686 141.302 9.46008C141.302 10.4091 141.692 11.1855 142.472 11.7894C143.281 12.3646 144.811 12.9973 147.064 13.6874C147.988 13.975 148.682 14.2051 149.144 14.3776C149.635 14.5214 150.284 14.7658 151.093 15.1109C151.931 15.4273 152.566 15.7292 152.999 16.0168C153.461 16.3044 153.981 16.6926 154.559 17.1815C155.136 17.6704 155.57 18.1736 155.858 18.6912C156.176 19.2089 156.436 19.8416 156.638 20.5892C156.869 21.3082 156.985 22.099 156.985 22.9617C156.985 25.7512 155.96 27.9656 153.909 29.6047C151.887 31.2439 149.245 32.0635 145.981 32.0635Z" fill="black"/>
<path d="M179.842 1.26419V6.95818H171.654V31.4596H165.676V6.95818H157.531V1.26419H179.842Z" fill="black"/>
</svg>
